<mxfile host="app.diagrams.net" agent="Mozilla/5.0 (Windows NT 10.0; Win64; x64) AppleWebKit/537.36 (KHTML, like Gecko) Chrome/130.0.0.0 YaBrowser/24.12.0.0 Safari/537.36" version="26.0.11">
  <diagram name="Страница — 1" id="GNkdy23KOwpqCC0cljxQ">
    <mxGraphModel dx="1050" dy="575" grid="1" gridSize="10" guides="1" tooltips="1" connect="1" arrows="1" fold="1" page="1" pageScale="1" pageWidth="827" pageHeight="1169" math="0" shadow="0">
      <root>
        <mxCell id="0" />
        <mxCell id="1" parent="0" />
        <mxCell id="-DWQmKJHxBk5_DLV8nf4-2" style="edgeStyle=orthogonalEdgeStyle;rounded=0;orthogonalLoop=1;jettySize=auto;html=1;" parent="1" source="-DWQmKJHxBk5_DLV8nf4-1" target="-DWQmKJHxBk5_DLV8nf4-3" edge="1">
          <mxGeometry relative="1" as="geometry">
            <mxPoint x="130" y="80" as="targetPoint" />
          </mxGeometry>
        </mxCell>
        <mxCell id="-DWQmKJHxBk5_DLV8nf4-1" value="dvizh начало" style="ellipse;whiteSpace=wrap;html=1;" parent="1" vertex="1">
          <mxGeometry x="70" width="120" height="60" as="geometry" />
        </mxCell>
        <mxCell id="-DWQmKJHxBk5_DLV8nf4-6" style="edgeStyle=orthogonalEdgeStyle;rounded=0;orthogonalLoop=1;jettySize=auto;html=1;" parent="1" source="-DWQmKJHxBk5_DLV8nf4-3" edge="1">
          <mxGeometry relative="1" as="geometry">
            <mxPoint x="130" y="170" as="targetPoint" />
          </mxGeometry>
        </mxCell>
        <mxCell id="-DWQmKJHxBk5_DLV8nf4-3" value="инициализация а" style="shape=parallelogram;perimeter=parallelogramPerimeter;whiteSpace=wrap;html=1;fixedSize=1;" parent="1" vertex="1">
          <mxGeometry x="70" y="80" width="120" height="60" as="geometry" />
        </mxCell>
        <mxCell id="-DWQmKJHxBk5_DLV8nf4-4" value="" style="endArrow=none;dashed=1;html=1;rounded=0;" parent="1" target="-DWQmKJHxBk5_DLV8nf4-5" edge="1">
          <mxGeometry width="50" height="50" relative="1" as="geometry">
            <mxPoint x="180" y="110" as="sourcePoint" />
            <mxPoint x="260" y="110" as="targetPoint" />
          </mxGeometry>
        </mxCell>
        <mxCell id="-DWQmKJHxBk5_DLV8nf4-5" value="передача а&lt;div&gt;по значению&lt;/div&gt;" style="strokeWidth=2;html=1;shape=mxgraph.flowchart.annotation_1;align=left;pointerEvents=1;" parent="1" vertex="1">
          <mxGeometry x="235" y="80" width="50" height="60" as="geometry" />
        </mxCell>
        <mxCell id="-DWQmKJHxBk5_DLV8nf4-9" style="edgeStyle=orthogonalEdgeStyle;rounded=0;orthogonalLoop=1;jettySize=auto;html=1;" parent="1" source="-DWQmKJHxBk5_DLV8nf4-8" edge="1">
          <mxGeometry relative="1" as="geometry">
            <mxPoint x="130" y="330" as="targetPoint" />
          </mxGeometry>
        </mxCell>
        <mxCell id="-DWQmKJHxBk5_DLV8nf4-11" style="edgeStyle=orthogonalEdgeStyle;rounded=0;orthogonalLoop=1;jettySize=auto;html=1;" parent="1" source="-DWQmKJHxBk5_DLV8nf4-8" edge="1">
          <mxGeometry relative="1" as="geometry">
            <mxPoint x="250" y="330" as="targetPoint" />
            <Array as="points">
              <mxPoint x="130" y="280" />
              <mxPoint x="250" y="280" />
            </Array>
          </mxGeometry>
        </mxCell>
        <mxCell id="-DWQmKJHxBk5_DLV8nf4-13" style="edgeStyle=orthogonalEdgeStyle;rounded=0;orthogonalLoop=1;jettySize=auto;html=1;" parent="1" source="-DWQmKJHxBk5_DLV8nf4-8" edge="1">
          <mxGeometry relative="1" as="geometry">
            <mxPoint x="370" y="330" as="targetPoint" />
            <Array as="points">
              <mxPoint x="130" y="280" />
              <mxPoint x="370" y="280" />
            </Array>
          </mxGeometry>
        </mxCell>
        <mxCell id="-DWQmKJHxBk5_DLV8nf4-18" style="edgeStyle=orthogonalEdgeStyle;rounded=0;orthogonalLoop=1;jettySize=auto;html=1;" parent="1" source="-DWQmKJHxBk5_DLV8nf4-8" edge="1">
          <mxGeometry relative="1" as="geometry">
            <mxPoint x="490" y="330" as="targetPoint" />
            <Array as="points">
              <mxPoint x="130" y="280" />
              <mxPoint x="490" y="280" />
            </Array>
          </mxGeometry>
        </mxCell>
        <mxCell id="-DWQmKJHxBk5_DLV8nf4-8" value="a=" style="rhombus;whiteSpace=wrap;html=1;" parent="1" vertex="1">
          <mxGeometry x="70" y="170" width="120" height="60" as="geometry" />
        </mxCell>
        <mxCell id="-DWQmKJHxBk5_DLV8nf4-15" value="VK up" style="text;html=1;align=center;verticalAlign=middle;whiteSpace=wrap;rounded=0;" parent="1" vertex="1">
          <mxGeometry x="140" y="300" width="60" height="30" as="geometry" />
        </mxCell>
        <mxCell id="-DWQmKJHxBk5_DLV8nf4-16" value="VK down" style="text;html=1;align=center;verticalAlign=middle;whiteSpace=wrap;rounded=0;" parent="1" vertex="1">
          <mxGeometry x="260" y="300" width="60" height="30" as="geometry" />
        </mxCell>
        <mxCell id="-DWQmKJHxBk5_DLV8nf4-17" value="VK left" style="text;html=1;align=center;verticalAlign=middle;whiteSpace=wrap;rounded=0;" parent="1" vertex="1">
          <mxGeometry x="370" y="300" width="60" height="30" as="geometry" />
        </mxCell>
        <mxCell id="-DWQmKJHxBk5_DLV8nf4-20" value="VK right" style="text;html=1;align=center;verticalAlign=middle;whiteSpace=wrap;rounded=0;" parent="1" vertex="1">
          <mxGeometry x="490" y="300" width="60" height="30" as="geometry" />
        </mxCell>
        <mxCell id="-DWQmKJHxBk5_DLV8nf4-25" style="edgeStyle=orthogonalEdgeStyle;rounded=0;orthogonalLoop=1;jettySize=auto;html=1;" parent="1" source="-DWQmKJHxBk5_DLV8nf4-21" edge="1">
          <mxGeometry relative="1" as="geometry">
            <mxPoint x="130" y="440" as="targetPoint" />
          </mxGeometry>
        </mxCell>
        <mxCell id="-DWQmKJHxBk5_DLV8nf4-21" value="&lt;span style=&quot;font-size: 12pt; font-family: Consolas;&quot; lang=&quot;EN-US&quot;&gt;y:=y-&lt;/span&gt;&lt;span style=&quot;font-size:12.0pt;font-family:Consolas;mso-fareast-font-family:&lt;br/&gt;Calibri;mso-fareast-theme-font:minor-latin;mso-bidi-font-family:&amp;quot;Courier New&amp;quot;;&lt;br/&gt;color:darkgreen;mso-font-kerning:0pt;mso-ansi-language:EN-US;mso-fareast-language:&lt;br/&gt;EN-US;mso-bidi-language:AR-SA&quot; lang=&quot;EN-US&quot;&gt;5&lt;/span&gt;" style="rounded=0;whiteSpace=wrap;html=1;" parent="1" vertex="1">
          <mxGeometry x="80" y="330" width="100" height="40" as="geometry" />
        </mxCell>
        <mxCell id="-DWQmKJHxBk5_DLV8nf4-26" style="edgeStyle=orthogonalEdgeStyle;rounded=0;orthogonalLoop=1;jettySize=auto;html=1;" parent="1" source="-DWQmKJHxBk5_DLV8nf4-22" edge="1">
          <mxGeometry relative="1" as="geometry">
            <mxPoint x="130" y="440" as="targetPoint" />
            <Array as="points">
              <mxPoint x="250" y="400" />
              <mxPoint x="131" y="400" />
            </Array>
          </mxGeometry>
        </mxCell>
        <mxCell id="-DWQmKJHxBk5_DLV8nf4-22" value="&lt;span style=&quot;font-size: 12pt; font-family: Consolas;&quot; lang=&quot;EN-US&quot;&gt;y:=y+&lt;/span&gt;&lt;span style=&quot;font-size:12.0pt;font-family:Consolas;mso-fareast-font-family:&lt;br/&gt;Calibri;mso-fareast-theme-font:minor-latin;mso-bidi-font-family:&amp;quot;Courier New&amp;quot;;&lt;br/&gt;color:darkgreen;mso-font-kerning:0pt;mso-ansi-language:EN-US;mso-fareast-language:&lt;br/&gt;EN-US;mso-bidi-language:AR-SA&quot; lang=&quot;EN-US&quot;&gt;5&lt;/span&gt;" style="rounded=0;whiteSpace=wrap;html=1;" parent="1" vertex="1">
          <mxGeometry x="200" y="330" width="100" height="40" as="geometry" />
        </mxCell>
        <mxCell id="-DWQmKJHxBk5_DLV8nf4-28" style="edgeStyle=orthogonalEdgeStyle;rounded=0;orthogonalLoop=1;jettySize=auto;html=1;" parent="1" source="-DWQmKJHxBk5_DLV8nf4-23" edge="1">
          <mxGeometry relative="1" as="geometry">
            <mxPoint x="130" y="440" as="targetPoint" />
            <Array as="points">
              <mxPoint x="370" y="400" />
              <mxPoint x="131" y="400" />
            </Array>
          </mxGeometry>
        </mxCell>
        <mxCell id="-DWQmKJHxBk5_DLV8nf4-23" value="&lt;span style=&quot;font-size: 12pt; font-family: Consolas;&quot; lang=&quot;EN-US&quot;&gt;x:=x-&lt;/span&gt;&lt;span style=&quot;font-size:12.0pt;font-family:Consolas;mso-fareast-font-family:&lt;br/&gt;Calibri;mso-fareast-theme-font:minor-latin;mso-bidi-font-family:&amp;quot;Courier New&amp;quot;;&lt;br/&gt;color:darkgreen;mso-font-kerning:0pt;mso-ansi-language:EN-US;mso-fareast-language:&lt;br/&gt;EN-US;mso-bidi-language:AR-SA&quot; lang=&quot;EN-US&quot;&gt;5&lt;/span&gt;" style="rounded=0;whiteSpace=wrap;html=1;" parent="1" vertex="1">
          <mxGeometry x="320" y="330" width="100" height="40" as="geometry" />
        </mxCell>
        <mxCell id="-DWQmKJHxBk5_DLV8nf4-29" style="edgeStyle=orthogonalEdgeStyle;rounded=0;orthogonalLoop=1;jettySize=auto;html=1;" parent="1" source="-DWQmKJHxBk5_DLV8nf4-24" edge="1">
          <mxGeometry relative="1" as="geometry">
            <mxPoint x="130" y="440" as="targetPoint" />
            <Array as="points">
              <mxPoint x="490" y="400" />
              <mxPoint x="131" y="400" />
            </Array>
          </mxGeometry>
        </mxCell>
        <mxCell id="-DWQmKJHxBk5_DLV8nf4-24" value="&lt;span style=&quot;font-size: 12pt; font-family: Consolas;&quot; lang=&quot;EN-US&quot;&gt;x:=x+&lt;/span&gt;&lt;span style=&quot;font-size:12.0pt;font-family:Consolas;mso-fareast-font-family:&lt;br/&gt;Calibri;mso-fareast-theme-font:minor-latin;mso-bidi-font-family:&amp;quot;Courier New&amp;quot;;&lt;br/&gt;color:darkgreen;mso-font-kerning:0pt;mso-ansi-language:EN-US;mso-fareast-language:&lt;br/&gt;EN-US;mso-bidi-language:AR-SA&quot; lang=&quot;EN-US&quot;&gt;5&lt;/span&gt;" style="rounded=0;whiteSpace=wrap;html=1;" parent="1" vertex="1">
          <mxGeometry x="440" y="330" width="100" height="40" as="geometry" />
        </mxCell>
        <mxCell id="-DWQmKJHxBk5_DLV8nf4-31" style="edgeStyle=orthogonalEdgeStyle;rounded=0;orthogonalLoop=1;jettySize=auto;html=1;" parent="1" source="-DWQmKJHxBk5_DLV8nf4-30" target="-DWQmKJHxBk5_DLV8nf4-32" edge="1">
          <mxGeometry relative="1" as="geometry">
            <mxPoint x="130" y="530" as="targetPoint" />
          </mxGeometry>
        </mxCell>
        <mxCell id="-DWQmKJHxBk5_DLV8nf4-30" value="window.clear" style="shape=parallelogram;perimeter=parallelogramPerimeter;whiteSpace=wrap;html=1;fixedSize=1;" parent="1" vertex="1">
          <mxGeometry x="70" y="440" width="120" height="60" as="geometry" />
        </mxCell>
        <mxCell id="-DWQmKJHxBk5_DLV8nf4-33" style="edgeStyle=orthogonalEdgeStyle;rounded=0;orthogonalLoop=1;jettySize=auto;html=1;" parent="1" source="-DWQmKJHxBk5_DLV8nf4-32" target="-DWQmKJHxBk5_DLV8nf4-34" edge="1">
          <mxGeometry relative="1" as="geometry">
            <mxPoint x="130" y="620" as="targetPoint" />
          </mxGeometry>
        </mxCell>
        <mxCell id="-DWQmKJHxBk5_DLV8nf4-32" value="возврат а" style="shape=parallelogram;perimeter=parallelogramPerimeter;whiteSpace=wrap;html=1;fixedSize=1;" parent="1" vertex="1">
          <mxGeometry x="70" y="525" width="120" height="60" as="geometry" />
        </mxCell>
        <mxCell id="-DWQmKJHxBk5_DLV8nf4-34" value="конец dvizh" style="ellipse;whiteSpace=wrap;html=1;" parent="1" vertex="1">
          <mxGeometry x="70" y="620" width="120" height="60" as="geometry" />
        </mxCell>
      </root>
    </mxGraphModel>
  </diagram>
</mxfile>
